<svg width="33" height="32" viewBox="0 0 33 32" fill="none" xmlns="http://www.w3.org/2000/svg">
<path d="M10.7334 27.4661C10.3556 27.7773 9.9612 27.7884 9.55009 27.4995C9.13898 27.2106 9.0112 26.8328 9.16676 26.3661L11.3668 19.1995L5.70009 15.1328C5.30009 14.8439 5.17232 14.4717 5.31676 14.0161C5.4612 13.5606 5.77787 13.3328 6.26676 13.3328H13.3001L15.5334 5.86615C15.6001 5.6217 15.7279 5.43837 15.9168 5.31615C16.1056 5.19392 16.3001 5.13281 16.5001 5.13281C16.7001 5.13281 16.8945 5.19392 17.0834 5.31615C17.2723 5.43837 17.4001 5.6217 17.4668 5.86615L19.7001 13.3328H26.7334C27.2223 13.3328 27.539 13.5606 27.6834 14.0161C27.8279 14.4717 27.7001 14.8439 27.3001 15.1328L21.6334 19.1995L23.8334 26.3661C23.989 26.8328 23.8612 27.2106 23.4501 27.4995C23.039 27.7884 22.6445 27.7773 22.2668 27.4661L16.5001 23.0661L10.7334 27.4661Z" fill="#FFCB03"/>
</svg>
