<svg width="13" height="12" viewBox="0 0 13 12" fill="none" xmlns="http://www.w3.org/2000/svg">
<path d="M4.33747 10.2998C4.19581 10.4165 4.04789 10.4206 3.89372 10.3123C3.73956 10.204 3.69164 10.0623 3.74997 9.8873L4.57497 7.1998L2.44997 5.6748C2.29997 5.56647 2.25206 5.42689 2.30622 5.25605C2.36039 5.08522 2.47914 4.9998 2.66247 4.9998H5.29997L6.13747 2.1998C6.16247 2.10814 6.21039 2.03939 6.28122 1.99355C6.35206 1.94772 6.42497 1.9248 6.49997 1.9248C6.57497 1.9248 6.64789 1.94772 6.71872 1.99355C6.78956 2.03939 6.83747 2.10814 6.86247 2.1998L7.69997 4.9998H10.3375C10.5208 4.9998 10.6396 5.08522 10.6937 5.25605C10.7479 5.42689 10.7 5.56647 10.55 5.6748L8.42497 7.1998L9.24997 9.8873C9.30831 10.0623 9.26039 10.204 9.10622 10.3123C8.95206 10.4206 8.80414 10.4165 8.66247 10.2998L6.49997 8.6498L4.33747 10.2998Z" fill="#809191"/>
</svg>
