 <svg width="25" height="24" viewBox="0 0 25 24" fill="none" xmlns="http://www.w3.org/2000/svg">
                    <mask id="mask0_3719_3979" style="mask-type:alpha" maskUnits="userSpaceOnUse" x="0" y="0" width="25"
                        height="24">
                        <rect x="0.5" width="24" height="24" fill="#D9D9D9" />
                    </mask>
                    <g mask="url(#mask0_3719_3979)">
                        <path
                            d="M20.1479 20.575L13.8295 14.3C13.328 14.7167 12.7513 15.0417 12.0994 15.275C11.4475 15.5083 10.7789 15.625 10.0936 15.625C8.37191 15.625 6.91767 15.0333 5.73087 13.85C4.54408 12.6667 3.95068 11.2167 3.95068 9.5C3.95068 7.8 4.54408 6.354 5.73087 5.162C6.91767 3.97067 8.37191 3.375 10.0936 3.375C11.7986 3.375 13.2444 3.96667 14.4312 5.15C15.618 6.33333 16.2114 7.78333 16.2114 9.5C16.2114 10.2167 16.0944 10.9 15.8604 11.55C15.6264 12.2 15.3088 12.7667 14.9076 13.25L21.201 19.525L20.1479 20.575ZM10.0936 14.125C11.3807 14.125 12.4715 13.675 13.3661 12.775C14.2601 11.875 14.707 10.7833 14.707 9.5C14.707 8.21667 14.2601 7.125 13.3661 6.225C12.4715 5.325 11.3807 4.875 10.0936 4.875C8.78979 4.875 7.69092 5.325 6.79698 6.225C5.90237 7.125 5.45507 8.21667 5.45507 9.5C5.45507 10.7833 5.90237 11.875 6.79698 12.775C7.69092 13.675 8.78979 14.125 10.0936 14.125Z"
                            fill="#364F4F" />
                    </g>
                </svg>