<svg width="17" height="16" viewBox="0 0 17 16" fill="none" xmlns="http://www.w3.org/2000/svg">
<path d="M5.61647 13.7331C5.42758 13.8886 5.23036 13.8942 5.0248 13.7497C4.81925 13.6053 4.75536 13.4164 4.83314 13.1831L5.93314 9.59974L3.0998 7.56641C2.8998 7.42196 2.83591 7.23585 2.90814 7.00807C2.98036 6.7803 3.13869 6.66641 3.38314 6.66641H6.8998L8.01647 2.93307C8.0498 2.81085 8.11369 2.71918 8.20814 2.65807C8.30258 2.59696 8.3998 2.56641 8.4998 2.56641C8.5998 2.56641 8.69702 2.59696 8.79147 2.65807C8.88591 2.71918 8.9498 2.81085 8.98314 2.93307L10.0998 6.66641H13.6165C13.8609 6.66641 14.0192 6.7803 14.0915 7.00807C14.1637 7.23585 14.0998 7.42196 13.8998 7.56641L11.0665 9.59974L12.1665 13.1831C12.2442 13.4164 12.1804 13.6053 11.9748 13.7497C11.7692 13.8942 11.572 13.8886 11.3831 13.7331L8.4998 11.5331L5.61647 13.7331Z" fill="#FFCB03"/>
</svg>
