<svg width="33" height="32" viewBox="0 0 33 32" fill="none" xmlns="http://www.w3.org/2000/svg">
<path d="M10.2785 26.8699L10.2674 26.8783L10.2566 26.8872C10.2096 26.926 10.1764 26.9434 10.1582 26.9511C10.1418 26.9579 10.1346 26.9581 10.1332 26.9581H10.1331C10.1317 26.9581 10.122 26.9585 10.0998 26.9509C10.0761 26.9427 10.0366 26.9247 9.9813 26.8858C9.8733 26.8099 9.85766 26.763 9.85643 26.7593L9.85639 26.7592L9.85636 26.7591C9.85552 26.7568 9.84056 26.7165 9.87827 26.6033L9.88111 26.5948L9.88374 26.5862L12.0837 19.4196L12.2419 18.9044L11.804 18.5901L6.13921 14.5248C6.13894 14.5246 6.13866 14.5244 6.13839 14.5242C6.0326 14.4476 6.01574 14.3996 6.01363 14.3935L6.01354 14.3932C6.0118 14.3883 5.99804 14.3489 6.03168 14.2428C6.06633 14.1336 6.10048 14.1125 6.10054 14.1125L6.10063 14.1124C6.10322 14.1105 6.14112 14.0828 6.26676 14.0828H13.3001H13.8586L14.0186 13.5477L16.252 6.08107L16.2546 6.07231L16.257 6.06348C16.2816 5.97341 16.3099 5.95511 16.324 5.94594L16.3242 5.94582C16.4074 5.89202 16.4622 5.88281 16.5001 5.88281C16.538 5.88281 16.5928 5.89202 16.676 5.94582L17.0834 5.31615L16.676 5.94582L16.6762 5.94594C16.6903 5.95511 16.7186 5.97341 16.7432 6.06348L16.7456 6.07231L16.7482 6.08107L18.9815 13.5477L19.1416 14.0828H19.7001H26.7334C26.8591 14.0828 26.897 14.1105 26.8996 14.1124L26.8996 14.1125C26.8997 14.1125 26.9339 14.1336 26.9685 14.2428C27.0021 14.3489 26.9884 14.3882 26.9866 14.3932L26.9866 14.3935C26.9844 14.3996 26.9676 14.4476 26.8618 14.5242C26.8615 14.5244 26.8612 14.5246 26.861 14.5248L21.1961 18.5901L20.7583 18.9044L20.9164 19.4196L23.1164 26.5862L23.1191 26.5948L23.1219 26.6033C23.1596 26.7164 23.1447 26.7568 23.1438 26.7591L23.1438 26.7592C23.1429 26.7618 23.1283 26.809 23.0189 26.8858C22.9636 26.9247 22.9241 26.9427 22.9004 26.9509C22.8782 26.9585 22.8684 26.9581 22.867 26.9581H22.867C22.8655 26.9581 22.8584 26.9579 22.842 26.9511C22.8237 26.9434 22.7906 26.926 22.7435 26.8872L22.7328 26.8783L22.7217 26.8699L16.955 22.4699L16.5001 22.1228L16.0451 22.4699L10.2785 26.8699Z" stroke="#282828" stroke-width="1.5"/>
</svg>
