<svg
  width="24"
  height="25"
  viewBox="0 0 24 25"
  fill="none"
  xmlns="http://www.w3.org/2000/svg"
>
<path
    d="M16.125 16.325C15.975 16.175 15.9 15.9917 15.9 15.775C15.9 15.5583 15.975 15.3833 16.125 15.25L18.125 13.25H10.125C9.90833 13.25 9.72917 13.1792 9.5875 13.0375C9.44583 12.8958 9.375 12.7167 9.375 12.5C9.375 12.2833 9.44583 12.1042 9.5875 11.9625C9.72917 11.8208 9.90833 11.75 10.125 11.75H18.075L16.05 9.725C15.9167 9.59167 15.85 9.42083 15.85 9.2125C15.85 9.00417 15.925 8.825 16.075 8.675C16.225 8.525 16.4042 8.45 16.6125 8.45C16.8208 8.45 17 8.525 17.15 8.675L20.475 12C20.5583 12.0833 20.6167 12.1667 20.65 12.25C20.6833 12.3333 20.7 12.425 20.7 12.525C20.7 12.625 20.6833 12.7167 20.65 12.8C20.6167 12.8833 20.5583 12.9667 20.475 13.05L17.175 16.35C17.0417 16.4833 16.8708 16.55 16.6625 16.55C16.4542 16.55 16.275 16.475 16.125 16.325ZM4.5 21.5C4.1 21.5 3.75 21.35 3.45 21.05C3.15 20.75 3 20.4 3 20V5C3 4.6 3.15 4.25 3.45 3.95C3.75 3.65 4.1 3.5 4.5 3.5H11.025C11.2417 3.5 11.4208 3.57083 11.5625 3.7125C11.7042 3.85417 11.775 4.03333 11.775 4.25C11.775 4.46667 11.7042 4.64583 11.5625 4.7875C11.4208 4.92917 11.2417 5 11.025 5H4.5V20H11.025C11.2417 20 11.4208 20.0708 11.5625 20.2125C11.7042 20.3542 11.775 20.5333 11.775 20.75C11.775 20.9667 11.7042 21.1458 11.5625 21.2875C11.4208 21.4292 11.2417 21.5 11.025 21.5H4.5Z"
    fill="#94ABAB"
  />
</svg>
