<svg width="24" height="24" viewBox="0 0 24 24" fill="none" xmlns="http://www.w3.org/2000/svg">
<path d="M2.3001 21C2.01676 21 1.8001 20.875 1.6501 20.625C1.5001 20.375 1.5001 20.125 1.6501 19.875L11.3501 3.125C11.5001 2.875 11.7168 2.75 12.0001 2.75C12.2834 2.75 12.5001 2.875 12.6501 3.125L22.3501 19.875C22.5001 20.125 22.5001 20.375 22.3501 20.625C22.2001 20.875 21.9834 21 21.7001 21H2.3001ZM12.1001 9.7C11.8834 9.7 11.7043 9.77083 11.5626 9.9125C11.4209 10.0542 11.3501 10.2333 11.3501 10.45V14.55C11.3501 14.7667 11.4209 14.9458 11.5626 15.0875C11.7043 15.2292 11.8834 15.3 12.1001 15.3C12.3168 15.3 12.4959 15.2292 12.6376 15.0875C12.7793 14.9458 12.8501 14.7667 12.8501 14.55V10.45C12.8501 10.2333 12.7793 10.0542 12.6376 9.9125C12.4959 9.77083 12.3168 9.7 12.1001 9.7ZM12.1001 18.075C12.3168 18.075 12.4959 18.0042 12.6376 17.8625C12.7793 17.7208 12.8501 17.5417 12.8501 17.325C12.8501 17.1083 12.7793 16.9292 12.6376 16.7875C12.4959 16.6458 12.3168 16.575 12.1001 16.575C11.8834 16.575 11.7043 16.6458 11.5626 16.7875C11.4209 16.9292 11.3501 17.1083 11.3501 17.325C11.3501 17.5417 11.4209 17.7208 11.5626 17.8625C11.7043 18.0042 11.8834 18.075 12.1001 18.075ZM3.6001 19.5H20.4001L12.0001 5L3.6001 19.5Z" fill="#94ABAB"/>
</svg>
