<svg
  width="24"
  height="24"
  viewBox="0 0 24 24"
  fill="none"
  xmlns="http://www.w3.org/2000/svg"
>
<path
    d="M12 21.8996C11.9 21.8996 11.8 21.8954 11.7 21.8871C11.6 21.8788 11.5083 21.8579 11.425 21.8246C9.24167 21.1079 7.45833 19.7246 6.075 17.6746C4.69167 15.6246 4 13.3829 4 10.9496V6.04961C4 5.73294 4.09167 5.44544 4.275 5.18711C4.45833 4.92878 4.69167 4.74128 4.975 4.62461L11.475 2.19961C11.6583 2.13294 11.8333 2.09961 12 2.09961C12.1667 2.09961 12.3417 2.13294 12.525 2.19961L19.025 4.62461C19.3083 4.74128 19.5417 4.92878 19.725 5.18711C19.9083 5.44544 20 5.73294 20 6.04961V10.9496C20 13.3829 19.3083 15.6246 17.925 17.6746C16.5417 19.7246 14.7583 21.1079 12.575 21.8246C12.4917 21.8579 12.4 21.8788 12.3 21.8871C12.2 21.8954 12.1 21.8996 12 21.8996ZM12 20.4496C13.7667 19.8663 15.2292 18.7954 16.3875 17.2371C17.5458 15.6788 18.225 13.9329 18.425 11.9996H12V3.62461L5.5 6.04961V10.9496C5.5 11.1496 5.50417 11.3204 5.5125 11.4621C5.52083 11.6038 5.54167 11.7829 5.575 11.9996H12V20.4496Z"
    fill="#94ABAB"
  />
</svg>
