<svg
  width="24"
  height="24"
  viewBox="0 0 24 24"
  fill="none"
  xmlns="http://www.w3.org/2000/svg"
>
<path
    d="M4.725 21.0011C4.525 21.0011 4.35417 20.9261 4.2125 20.7761C4.07083 20.6261 4 20.4511 4 20.2511C4 20.0345 4.07083 19.8553 4.2125 19.7136C4.35417 19.572 4.53333 19.5011 4.75 19.5011H15.275C15.475 19.5011 15.6458 19.5761 15.7875 19.7261C15.9292 19.8761 16 20.0511 16 20.2511C16 20.4678 15.9292 20.647 15.7875 20.7886C15.6458 20.9303 15.4667 21.0011 15.25 21.0011H4.725ZM8.5 14.6511L5.05 11.2011C4.76667 10.9178 4.62083 10.5678 4.6125 10.1511C4.60417 9.73447 4.74167 9.38447 5.025 9.10114L5.75 8.35114L11.35 13.9011L10.6 14.6511C10.3167 14.9345 9.96667 15.0761 9.55 15.0761C9.13333 15.0761 8.78333 14.9345 8.5 14.6511ZM15.9 9.35114L10.35 3.75114L11.1 3.02614C11.3833 2.74281 11.7333 2.60531 12.15 2.61364C12.5667 2.62197 12.9167 2.76781 13.2 3.05114L16.65 6.50114C16.9333 6.78447 17.075 7.13447 17.075 7.55114C17.075 7.9678 16.9333 8.31781 16.65 8.60114L15.9 9.35114ZM20.425 19.4761L7.55 6.60114L8.6 5.55114L21.5 18.4511C21.6333 18.5845 21.6958 18.7553 21.6875 18.9636C21.6792 19.172 21.6083 19.3428 21.475 19.4761C21.325 19.6261 21.15 19.7011 20.95 19.7011C20.75 19.7011 20.575 19.6261 20.425 19.4761Z"
    fill="#94ABAB"
  />
</svg>
