<svg
  width="44"
  height="44"
  viewBox="0 0 44 44"
  fill="none"
  xmlns="http://www.w3.org/2000/svg"
>
<path
    d="M21.0626 29.7059L14.2825 22.9258C14.1798 22.823 14.1068 22.7117 14.0637 22.5919C14.0212 22.472 14 22.3436 14 22.2067C14 22.0697 14.0212 21.9413 14.0637 21.8214C14.1068 21.7016 14.1798 21.5903 14.2825 21.4876L21.0626 14.7075C21.2509 14.5191 21.4862 14.4205 21.7683 14.4116C22.0512 14.4034 22.2953 14.502 22.5008 14.7075C22.7063 14.8958 22.8134 15.1311 22.8223 15.4132C22.8306 15.6961 22.7319 15.9402 22.5265 16.1457L17.4928 21.1794H28.9727C29.2638 21.1794 29.5079 21.2777 29.7052 21.4742C29.9017 21.6714 30 21.9156 30 22.2067C30 22.4977 29.9017 22.7415 29.7052 22.9381C29.5079 23.1353 29.2638 23.2339 28.9727 23.2339H17.4928L22.5265 28.2677C22.7148 28.456 22.8134 28.6957 22.8223 28.9868C22.8306 29.2778 22.7319 29.5175 22.5265 29.7059C22.3381 29.9113 22.0984 30.014 21.8074 30.014C21.5163 30.014 21.2681 29.9113 21.0626 29.7059Z"
    fill="#282828"
  />
</svg>
