<svg
  width="20"
  height="20"
  viewBox="0 0 20 20"
  fill="none"
  xmlns="http://www.w3.org/2000/svg"
>
<path
    d="M5.75001 17.6869C5.59723 17.5203 5.51737 17.3258 5.51043 17.1036C5.50348 16.8814 5.58334 16.6869 5.75001 16.5203L12.3125 9.95777L5.75001 3.39527C5.59723 3.2425 5.51737 3.05152 5.51043 2.82236C5.50348 2.59319 5.58334 2.39527 5.75001 2.22861C5.90279 2.06194 6.09376 1.97513 6.32293 1.96819C6.55209 1.96125 6.75001 2.04111 6.91668 2.20777L14.2292 9.52027C14.2986 9.58972 14.3472 9.65916 14.375 9.72861C14.4028 9.79805 14.4167 9.87444 14.4167 9.95777C14.4167 10.0411 14.4028 10.1175 14.375 10.1869C14.3472 10.2564 14.2986 10.3258 14.2292 10.3953L6.91668 17.7078C6.7639 17.8605 6.57293 17.9369 6.34376 17.9369C6.11459 17.9369 5.91668 17.8536 5.75001 17.6869Z"
    fill="#B2B6B8"
  />
</svg>
