<svg
  width="73"
  height="26"
  viewBox="0 0 73 26"
  fill="none"
  xmlns="http://www.w3.org/2000/svg"
>
<path
    d="M10.3145 10.8405H8.34132C8.28504 10.5169 8.18128 10.2302 8.03003 9.98052C7.87879 9.72727 7.69061 9.51272 7.4655 9.33685C7.2404 9.16098 6.98363 9.02908 6.69521 8.94115C6.41031 8.8497 6.10254 8.80398 5.77192 8.80398C5.18452 8.80398 4.66396 8.9517 4.21023 9.24716C3.75649 9.5391 3.40124 9.96821 3.14448 10.5345C2.88772 11.0973 2.75933 11.7849 2.75933 12.5974C2.75933 13.424 2.88772 14.1204 3.14448 14.6867C3.40476 15.2495 3.76001 15.6751 4.21023 15.9635C4.66396 16.2484 5.18277 16.3908 5.76664 16.3908C6.09023 16.3908 6.39272 16.3486 6.67411 16.2642C6.95901 16.1763 7.21402 16.0479 7.43912 15.8791C7.66775 15.7102 7.85944 15.5027 8.01421 15.2565C8.17248 15.0103 8.28152 14.7289 8.34132 14.4123L10.3145 14.4229C10.2407 14.9364 10.0806 15.4183 9.83442 15.8685C9.59172 16.3187 9.2734 16.7162 8.87946 17.0609C8.48553 17.4021 8.02476 17.6694 7.49716 17.8628C6.96956 18.0528 6.38393 18.1477 5.74026 18.1477C4.79058 18.1477 3.94291 17.9279 3.19724 17.4882C2.45157 17.0486 1.86418 16.4137 1.43507 15.5836C1.00595 14.7535 0.791396 13.7581 0.791396 12.5974C0.791396 11.4332 1.00771 10.4378 1.44034 9.6112C1.87297 8.78111 2.46212 8.14624 3.20779 7.70657C3.95346 7.26691 4.79762 7.04708 5.74026 7.04708C6.34172 7.04708 6.90097 7.13149 7.41802 7.30032C7.93507 7.46916 8.39583 7.71713 8.80033 8.04424C9.20482 8.36783 9.5372 8.76529 9.79748 9.23661C10.0613 9.70441 10.2336 10.239 10.3145 10.8405ZM13.885 13.2516V18H11.9751V7.1948H13.8428V11.2731H13.9377C14.1277 10.8159 14.4214 10.4554 14.8188 10.1916C15.2198 9.92424 15.7298 9.79058 16.3489 9.79058C16.9116 9.79058 17.4023 9.90841 17.8209 10.1441C18.2394 10.3797 18.563 10.7244 18.7916 11.1782C19.0238 11.6319 19.1399 12.1859 19.1399 12.8401V18H17.23V13.1356C17.23 12.5904 17.0893 12.1665 16.8079 11.864C16.53 11.558 16.1396 11.405 15.6366 11.405C15.2989 11.405 14.9965 11.4789 14.7291 11.6266C14.4653 11.7708 14.2578 11.9801 14.1066 12.2545C13.9589 12.5288 13.885 12.8612 13.885 13.2516ZM24.5741 18.1583C23.7827 18.1583 23.0968 17.9842 22.5164 17.636C21.9361 17.2877 21.4858 16.8006 21.1658 16.1745C20.8492 15.5484 20.6909 14.8168 20.6909 13.9797C20.6909 13.1426 20.8492 12.4092 21.1658 11.7796C21.4858 11.15 21.9361 10.6611 22.5164 10.3129C23.0968 9.96469 23.7827 9.79058 24.5741 9.79058C25.3654 9.79058 26.0513 9.96469 26.6317 10.3129C27.212 10.6611 27.6605 11.15 27.9771 11.7796C28.2971 12.4092 28.4572 13.1426 28.4572 13.9797C28.4572 14.8168 28.2971 15.5484 27.9771 16.1745C27.6605 16.8006 27.212 17.2877 26.6317 17.636C26.0513 17.9842 25.3654 18.1583 24.5741 18.1583ZM24.5846 16.6282C25.0137 16.6282 25.3725 16.5104 25.6609 16.2748C25.9493 16.0356 26.1639 15.7155 26.3046 15.3145C26.4488 14.9136 26.5209 14.4669 26.5209 13.9744C26.5209 13.4785 26.4488 13.03 26.3046 12.6291C26.1639 12.2246 25.9493 11.9027 25.6609 11.6636C25.3725 11.4244 25.0137 11.3048 24.5846 11.3048C24.1449 11.3048 23.7791 11.4244 23.4872 11.6636C23.1988 11.9027 22.9825 12.2246 22.8383 12.6291C22.6976 13.03 22.6272 13.4785 22.6272 13.9744C22.6272 14.4669 22.6976 14.9136 22.8383 15.3145C22.9825 15.7155 23.1988 16.0356 23.4872 16.2748C23.7791 16.5104 24.1449 16.6282 24.5846 16.6282ZM30.0307 18V9.8961H31.9406V18H30.0307ZM30.9909 8.74594C30.6884 8.74594 30.4281 8.6457 30.2101 8.44521C29.992 8.24121 29.8829 7.99675 29.8829 7.71185C29.8829 7.42343 29.992 7.17898 30.2101 6.97849C30.4281 6.77449 30.6884 6.67248 30.9909 6.67248C31.2969 6.67248 31.5572 6.77449 31.7717 6.97849C31.9898 7.17898 32.0989 7.42343 32.0989 7.71185C32.0989 7.99675 31.9898 8.24121 31.7717 8.44521C31.5572 8.6457 31.2969 8.74594 30.9909 8.74594ZM37.3919 18.1583C36.5829 18.1583 35.8883 17.9807 35.3079 17.6254C34.7311 17.2702 34.2861 16.7795 33.9731 16.1534C33.6636 15.5238 33.5088 14.7992 33.5088 13.9797C33.5088 13.1567 33.6671 12.4303 33.9836 11.8007C34.3002 11.1676 34.7469 10.6752 35.3237 10.3235C35.9041 9.96821 36.59 9.79058 37.3814 9.79058C38.0391 9.79058 38.6212 9.91193 39.1277 10.1546C39.6377 10.3938 40.044 10.7332 40.3465 11.1729C40.6489 11.609 40.8213 12.119 40.8635 12.7029H39.038C38.9642 12.3125 38.7883 11.9871 38.5104 11.7269C38.2361 11.4631 37.8685 11.3312 37.4077 11.3312C37.0173 11.3312 36.6744 11.4367 36.3789 11.6477C36.0835 11.8552 35.8531 12.1542 35.6878 12.5446C35.526 12.9351 35.4451 13.4029 35.4451 13.9481C35.4451 14.5003 35.526 14.9751 35.6878 15.3726C35.8496 15.7665 36.0764 16.0708 36.3684 16.2853C36.6638 16.4963 37.0103 16.6019 37.4077 16.6019C37.6891 16.6019 37.9406 16.5491 38.1622 16.4436C38.3873 16.3346 38.5755 16.178 38.7267 15.974C38.878 15.77 38.9817 15.5221 39.038 15.2301H40.8635C40.8178 15.8034 40.6489 16.3117 40.357 16.7549C40.0651 17.1945 39.6676 17.5392 39.1646 17.789C38.6617 18.0352 38.0708 18.1583 37.3919 18.1583ZM45.9719 18.1583C45.1594 18.1583 44.4577 17.9894 43.8668 17.6518C43.2794 17.3106 42.8274 16.8287 42.5109 16.2062C42.1943 15.5801 42.036 14.8432 42.036 13.9955C42.036 13.1619 42.1943 12.4303 42.5109 11.8007C42.8309 11.1676 43.2776 10.6752 43.851 10.3235C44.4243 9.96821 45.0979 9.79058 45.8717 9.79058C46.3711 9.79058 46.8424 9.87148 47.2856 10.0333C47.7323 10.1916 48.1263 10.4378 48.4674 10.7719C48.8121 11.1061 49.083 11.5317 49.2799 12.0487C49.4769 12.5622 49.5754 13.1742 49.5754 13.8847V14.4704H42.9329V13.183H47.7446C47.7411 12.8172 47.662 12.4919 47.5072 12.207C47.3525 11.9186 47.1361 11.6917 46.8583 11.5264C46.5839 11.3611 46.2638 11.2784 45.898 11.2784C45.5076 11.2784 45.1647 11.3734 44.8692 11.5633C44.5738 11.7497 44.3434 11.9959 44.1781 12.3019C44.0163 12.6044 43.9336 12.9368 43.9301 13.2991V14.4229C43.9301 14.8942 44.0163 15.2987 44.1886 15.6364C44.361 15.9705 44.6019 16.2273 44.9114 16.4067C45.221 16.5825 45.5832 16.6705 45.9983 16.6705C46.2762 16.6705 46.5276 16.6318 46.7528 16.5544C46.9779 16.4735 47.1731 16.3557 47.3384 16.2009C47.5037 16.0461 47.6286 15.8544 47.713 15.6258L49.4963 15.8263C49.3837 16.2976 49.1691 16.7091 48.8526 17.0609C48.5395 17.4091 48.1386 17.6799 47.6497 17.8734C47.1608 18.0633 46.6015 18.1583 45.9719 18.1583ZM55.9342 7.04708C56.4653 7.05059 56.9665 7.1438 57.4379 7.3267C57.9127 7.5096 58.3172 7.80682 58.6513 8.21834C58.9855 8.62635 59.2141 9.17154 59.3372 9.8539C59.4603 10.5327 59.4375 11.3734 59.2686 12.3758C59.1174 13.2903 58.8852 14.1063 58.5722 14.8239C58.2627 15.5379 57.8863 16.1429 57.4431 16.6388C57.0035 17.1312 56.5075 17.5058 55.9553 17.7626C55.4031 18.0193 54.8069 18.1477 54.1668 18.1477C53.4879 18.1477 52.9023 18.0158 52.4099 17.752C51.9174 17.4847 51.5411 17.1189 51.2808 16.6546C51.024 16.1903 50.9044 15.661 50.922 15.0666H52.8108C52.8214 15.5062 52.9515 15.8474 53.2013 16.0901C53.451 16.3328 53.8062 16.4541 54.267 16.4541C55.0232 16.4541 55.6704 16.127 56.2086 15.4728C56.7502 14.8186 57.1231 13.8971 57.3271 12.7082L57.2426 12.819C57.0211 13.1285 56.759 13.3906 56.4565 13.6051C56.154 13.8197 55.8252 13.9832 55.4699 14.0958C55.1182 14.2048 54.7524 14.2593 54.3725 14.2593C53.7253 14.2593 53.1678 14.1028 52.7 13.7898C52.2322 13.4767 51.8928 13.0476 51.6818 12.5024C51.4707 11.9573 51.4232 11.3364 51.5393 10.64C51.6554 9.9471 51.9157 9.32982 52.3202 8.78815C52.7282 8.24296 53.2417 7.81561 53.8607 7.50609C54.4833 7.19305 55.1745 7.04004 55.9342 7.04708ZM55.8656 8.62987C55.4717 8.62987 55.0988 8.7266 54.7471 8.92005C54.3989 9.1135 54.1034 9.37554 53.8607 9.70617C53.6216 10.0368 53.4703 10.4061 53.407 10.8141C53.3507 11.1799 53.3789 11.5106 53.4914 11.806C53.604 12.1015 53.7869 12.3371 54.0401 12.513C54.2969 12.6853 54.6082 12.7715 54.974 12.7715C55.2729 12.7715 55.5596 12.7135 55.834 12.5974C56.1118 12.4813 56.3633 12.3231 56.5884 12.1226C56.8171 11.9186 57.007 11.6847 57.1582 11.4209C57.3095 11.1571 57.408 10.8774 57.4537 10.582C57.5135 10.2232 57.4853 9.8961 57.3693 9.60065C57.2567 9.30519 57.0721 9.06953 56.8153 8.89367C56.5585 8.7178 56.242 8.62987 55.8656 8.62987ZM61.4053 9.8961H63.3152L61.8907 18.4643C61.7922 19.0482 61.5988 19.53 61.3104 19.9099C61.0255 20.2898 60.6561 20.5729 60.2024 20.7593C59.7522 20.9458 59.2281 21.039 58.6302 21.039C58.5704 21.039 58.5106 21.0372 58.4508 21.0337C58.3875 21.0337 58.3224 21.0319 58.2556 21.0284L58.5141 19.472C58.5633 19.4755 58.6091 19.4773 58.6513 19.4773C58.6935 19.4808 58.7392 19.4825 58.7884 19.4825C59.1542 19.4825 59.4321 19.3929 59.6221 19.2135C59.8085 19.0376 59.9316 18.7791 59.9914 18.4379L61.4053 9.8961ZM62.6135 8.74594C62.311 8.74594 62.0578 8.64394 61.8538 8.43993C61.6533 8.23593 61.5654 7.99324 61.59 7.71185C61.6146 7.42343 61.743 7.17898 61.9751 6.97849C62.2108 6.77449 62.4816 6.67248 62.7876 6.67248C63.0901 6.67248 63.3399 6.77449 63.5368 6.97849C63.7373 7.17898 63.8252 7.42343 63.8006 7.71185C63.7795 7.99324 63.6511 8.23593 63.4155 8.43993C63.1833 8.64394 62.916 8.74594 62.6135 8.74594ZM66.1919 18.1636C65.6784 18.1636 65.2317 18.0721 64.8518 17.8892C64.4719 17.7028 64.1923 17.4284 64.0129 17.0662C63.8371 16.7039 63.7931 16.2572 63.881 15.7261C63.9584 15.2688 64.1061 14.8907 64.3242 14.5917C64.5458 14.2927 64.8166 14.0536 65.1367 13.8742C65.4603 13.6913 65.812 13.5541 66.1919 13.4627C66.5753 13.3712 66.9657 13.3044 67.3632 13.2622C67.8486 13.2129 68.2407 13.1672 68.5397 13.125C68.8422 13.0828 69.0691 13.0195 69.2203 12.9351C69.3716 12.8471 69.463 12.7135 69.4947 12.5341V12.5024C69.558 12.105 69.4947 11.7972 69.3047 11.5791C69.1148 11.3611 68.7982 11.252 68.355 11.252C67.8908 11.252 67.5003 11.354 67.1838 11.558C66.8672 11.762 66.6368 12.003 66.4926 12.2808L64.7621 12.0276C64.9802 11.5352 65.2792 11.1236 65.659 10.793C66.0389 10.4589 66.4768 10.2091 66.9727 10.0438C67.4722 9.875 68.0051 9.79058 68.5714 9.79058C68.9583 9.79058 69.3364 9.83631 69.7057 9.92776C70.0785 10.0192 70.4074 10.1705 70.6923 10.3815C70.9807 10.589 71.1918 10.8722 71.3254 11.2309C71.4626 11.5897 71.4855 12.0381 71.394 12.5763L70.4918 18H68.6558L68.8457 16.8868H68.7824C68.6312 17.1119 68.4342 17.3229 68.1915 17.5199C67.9488 17.7133 67.6604 17.8699 67.3262 17.9894C66.9921 18.1055 66.614 18.1636 66.1919 18.1636ZM66.9147 16.7601C67.2981 16.7601 67.6428 16.6845 67.9488 16.5333C68.2548 16.3785 68.5063 16.1745 68.7033 15.9213C68.9002 15.668 69.0233 15.3919 69.0726 15.0929L69.2309 14.138C69.1605 14.1872 69.0515 14.233 68.9038 14.2752C68.756 14.3174 68.5907 14.3543 68.4078 14.386C68.2284 14.4176 68.0508 14.4458 67.8749 14.4704C67.6991 14.495 67.5478 14.5161 67.4212 14.5337C67.1293 14.5724 66.8619 14.6357 66.6193 14.7236C66.3801 14.8116 66.1813 14.9347 66.0231 15.0929C65.8683 15.2477 65.7716 15.4482 65.7329 15.6944C65.6766 16.0426 65.7593 16.3082 65.9809 16.4911C66.2025 16.6705 66.5137 16.7601 66.9147 16.7601Z"
    fill="#2EAE4E"
  />
</svg>
