<svg
  width="62"
  height="62"
  viewBox="0 0 62 62"
  fill="none"
  xmlns="http://www.w3.org/2000/svg"
>
<rect width="62" height="62" rx="31" fill="#217C38" fill-opacity="0.2" />
<mask
    id="mask0_1531_23825"
    style="mask-type:alpha"
    maskUnits="userSpaceOnUse"
    x="7"
    y="7"
    width="48"
    height="48"
  >
<rect x="7" y="7" width="48" height="48" fill="#D9D9D9" />
</mask>
<g mask="url(#mask0_1531_23825)">
<path
      d="M28.05 32C27.3167 32 26.7087 31.7167 26.226 31.15C25.742 30.5833 25.5667 29.9167 25.7 29.15L26.2 26.05C26.4 24.8833 26.9587 23.9167 27.876 23.15C28.792 22.3833 29.8333 22 31 22C32.2 22 33.2587 22.3833 34.176 23.15C35.092 23.9167 35.65 24.8833 35.85 26.05L36.35 29.15C36.4833 29.9167 36.3087 30.5833 35.826 31.15C35.342 31.7167 34.7333 32 34 32H28.05ZM28.75 29H33.3L32.9 26.55C32.8333 26.0833 32.6167 25.708 32.25 25.424C31.8833 25.1413 31.4667 25 31 25C30.5333 25 30.1247 25.1413 29.774 25.424C29.4247 25.708 29.2167 26.0833 29.15 26.55L28.75 29ZM13.85 33.65C13.2167 33.6833 12.6587 33.558 12.176 33.274C11.692 32.9913 11.3833 32.55 11.25 31.95C11.1833 31.6833 11.1667 31.4247 11.2 31.174C11.2333 30.9247 11.3 30.6833 11.4 30.45C11.4 30.4833 11.3833 30.4167 11.35 30.25C11.25 30.1167 11.1667 29.9667 11.1 29.8C11.0333 29.6333 10.9833 29.45 10.95 29.25C10.8833 28.8833 10.9253 28.55 11.076 28.25C11.2253 27.95 11.4 27.6833 11.6 27.45C11.6333 27.45 11.6667 27.4167 11.7 27.35C11.7667 26.8167 11.992 26.3667 12.376 26C12.7587 25.6333 13.2333 25.45 13.8 25.45C13.8667 25.45 14.1333 25.5 14.6 25.6H14.75C14.8833 25.4333 15.0667 25.3167 15.3 25.25C15.5333 25.1833 15.7667 25.15 16 25.15C16.3333 25.15 16.6253 25.2 16.876 25.3C17.1253 25.4 17.3167 25.55 17.45 25.75C17.4833 25.75 17.5087 25.758 17.526 25.774L17.55 25.8C17.95 25.8333 18.3 25.958 18.6 26.174C18.9 26.3913 19.1333 26.6833 19.3 27.05C19.3333 27.25 19.35 27.4333 19.35 27.6C19.35 27.7667 19.3167 27.95 19.25 28.15L19.3 28.3C19.5 28.5333 19.65 28.758 19.75 28.974C19.85 29.1913 19.9 29.4333 19.9 29.7C19.9 29.8 19.8167 30.1 19.65 30.6V30.8C19.6833 30.8333 19.7167 31.0667 19.75 31.5C19.75 32.1 19.5 32.608 19 33.024C18.5 33.4413 17.9 33.65 17.2 33.65H13.85ZM46.55 33.75C45.5833 33.75 44.7667 33.4167 44.1 32.75C43.4333 32.0833 43.1 31.2833 43.1 30.35C43.1 29.9833 43.15 29.6587 43.25 29.376C43.35 29.092 43.4833 28.8 43.65 28.5L42.45 27.45C42.15 27.2167 42.1 26.9333 42.3 26.6C42.5 26.2667 42.7667 26.1 43.1 26.1H46.5C47.4667 26.1 48.2833 26.4333 48.95 27.1C49.6167 27.7667 49.95 28.5667 49.95 29.5V30.35C49.95 31.2833 49.6167 32.0833 48.95 32.75C48.2833 33.4167 47.4833 33.75 46.55 33.75ZM9.75 42.6C9.25 42.6 8.83333 42.4333 8.5 42.1C8.16667 41.7667 8 41.35 8 40.85V40.15C8 38.7833 8.692 37.6833 10.076 36.85C11.4587 36.0167 13.2667 35.6 15.5 35.6C15.9 35.6 16.2833 35.6167 16.65 35.65C17.0167 35.6833 17.3667 35.7333 17.7 35.8C17.3333 36.3667 17.0587 36.9833 16.876 37.65C16.692 38.3167 16.6 39.0333 16.6 39.8V42.6H9.75ZM21.8 42.6C21.3 42.6 20.8753 42.4253 20.526 42.076C20.1753 41.7253 20 41.2833 20 40.75V39.9C20 37.9667 21.008 36.4167 23.024 35.25C25.0413 34.0833 27.7 33.5 31 33.5C34.3 33.5 36.9587 34.0833 38.976 35.25C40.992 36.4167 42 37.9667 42 39.9V40.75C42 41.2833 41.8253 41.7253 41.476 42.076C41.1253 42.4253 40.7 42.6 40.2 42.6H21.8ZM45.4 42.6V39.8C45.4 39.0333 45.3 38.3167 45.1 37.65C44.9 36.9833 44.6333 36.3667 44.3 35.8C44.6333 35.7333 44.9833 35.6833 45.35 35.65C45.7167 35.6167 46.1 35.6 46.5 35.6C48.7333 35.6 50.5413 36.0167 51.924 36.85C53.308 37.6833 54 38.7833 54 40.15V40.85C54 41.35 53.8333 41.7667 53.5 42.1C53.1667 42.4333 52.75 42.6 52.25 42.6H45.4ZM31 36.5C28.9 36.5 27.108 36.7833 25.624 37.35C24.1413 37.9167 23.3167 38.6 23.15 39.4V39.6H38.85V39.4C38.65 38.5667 37.8167 37.8747 36.35 37.324C34.8833 36.7747 33.1 36.5 31 36.5Z"
      fill="white"
    />
</g>
</svg>
