<svg width="791" height="371" viewBox="0 0 791 371" fill="none" xmlns="http://www.w3.org/2000/svg">
<g clip-path="url(#clip0_3782_604)">
<path d="M700.246 190.818H702.504L705.526 198.196H705.646L708.668 190.818H710.925V201H709.156V194.005H709.061L706.247 200.97H704.925L702.111 193.99H702.016V201H700.246V190.818Z" fill="#2EAE4E"/>
<path d="M690.557 192.364V190.818H698.68V192.364H695.533V201H693.704V192.364H690.557Z" fill="#2EAE4E"/>
<g clip-path="url(#clip1_3782_604)">
<path d="M315.92 126.14V116.14H362.84V126.14H345.35V173.32H333.41V126.14H315.92Z" fill="#2EAE4E"/>
<path d="M379.12 148.54V173.32H367.23V116.18H378.78V138.02H379.29C380.174 135.587 381.814 133.502 383.97 132.07C386.399 130.552 389.227 129.796 392.09 129.9C394.817 129.837 397.51 130.507 399.89 131.84C402.122 133.151 403.925 135.083 405.08 137.4C406.373 140.088 407.001 143.048 406.91 146.03V173.32H395.02V148.15C395.172 145.916 394.455 143.709 393.02 141.99C392.292 141.238 391.41 140.652 390.435 140.27C389.461 139.889 388.415 139.722 387.37 139.78C385.878 139.743 384.402 140.088 383.08 140.78C381.842 141.477 380.834 142.519 380.18 143.78C379.445 145.257 379.082 146.891 379.12 148.54V148.54Z" fill="#2EAE4E"/>
<path d="M432.67 174.15C428.71 174.263 424.79 173.335 421.3 171.46C418.156 169.693 415.605 167.035 413.97 163.82C412.283 160.161 411.41 156.179 411.41 152.15C411.41 148.121 412.283 144.139 413.97 140.48C415.595 137.249 418.106 134.547 421.21 132.69C424.551 130.768 428.357 129.803 432.21 129.9C434.907 129.88 437.585 130.34 440.12 131.26C442.529 132.132 444.719 133.517 446.54 135.32C448.447 137.242 449.908 139.56 450.82 142.11C451.9 145.179 452.422 148.417 452.36 151.67V154.93H416.17V147.57H441.17C441.205 145.981 440.819 144.411 440.05 143.02C439.329 141.719 438.264 140.643 436.97 139.91C435.578 139.133 434.004 138.742 432.41 138.78C430.73 138.745 429.072 139.174 427.62 140.02C426.262 140.82 425.141 141.966 424.37 143.34C423.582 144.752 423.168 146.343 423.17 147.96V154.96C423.125 156.862 423.533 158.747 424.36 160.46C425.106 161.953 426.274 163.195 427.72 164.03C429.3 164.894 431.08 165.325 432.88 165.28C434.113 165.297 435.34 165.108 436.51 164.72C437.561 164.377 438.524 163.807 439.33 163.05C440.121 162.285 440.73 161.352 441.11 160.32L452.11 161.04C451.594 163.601 450.419 165.983 448.7 167.95C446.879 169.976 444.603 171.542 442.06 172.52C439.064 173.662 435.876 174.215 432.67 174.15V174.15Z" fill="#2EAE4E"/>
<path d="M372.78 213.66H360.58C360.391 212.177 359.926 210.742 359.21 209.43C358.545 208.211 357.652 207.132 356.58 206.25C355.467 205.365 354.203 204.688 352.85 204.25C351.376 203.779 349.837 203.546 348.29 203.56C345.552 203.496 342.858 204.259 340.56 205.75C338.27 207.323 336.492 209.535 335.45 212.11C333.023 218.69 333.023 225.92 335.45 232.5C336.445 235.045 338.204 237.22 340.486 238.724C342.767 240.228 345.459 240.988 348.19 240.9C349.714 240.916 351.231 240.7 352.69 240.26C354.027 239.857 355.28 239.216 356.39 238.37C357.471 237.552 358.385 236.534 359.08 235.37C359.829 234.1 360.337 232.704 360.58 231.25L372.8 231.31C372.479 233.957 371.683 236.525 370.45 238.89C369.165 241.342 367.451 243.543 365.39 245.39C363.185 247.354 360.631 248.887 357.86 249.91C354.699 251.062 351.354 251.624 347.99 251.57C343.21 251.653 338.494 250.458 334.33 248.11C330.275 245.754 326.981 242.283 324.84 238.11C322.534 233.128 321.34 227.705 321.34 222.215C321.34 216.726 322.534 211.302 324.84 206.32C327.002 202.143 330.316 198.672 334.39 196.32C338.528 193.998 343.206 192.811 347.95 192.88C351.081 192.851 354.197 193.32 357.18 194.27C359.922 195.155 362.48 196.531 364.73 198.33C366.934 200.126 368.76 202.342 370.1 204.85C371.541 207.591 372.45 210.581 372.78 213.66V213.66Z" fill="#2EAE4E"/>
<path d="M391.58 226.02V250.81H379.69V193.65H391.24V215.5H391.74C392.627 213.053 394.269 210.951 396.43 209.5C398.863 207.984 401.695 207.232 404.56 207.34C407.286 207.28 409.979 207.95 412.36 209.28C414.594 210.585 416.398 212.514 417.55 214.83C418.847 217.521 419.475 220.485 419.38 223.47V250.77H407.48V225.63C407.634 223.392 406.917 221.182 405.48 219.46C404.751 218.71 403.869 218.126 402.894 217.747C401.919 217.367 400.874 217.201 399.83 217.26C398.338 217.218 396.86 217.563 395.54 218.26C394.302 218.957 393.294 219.999 392.64 221.26C391.907 222.737 391.543 224.371 391.58 226.02V226.02Z" fill="#2EAE4E"/>
<path d="M446.58 251.65C442.655 251.752 438.775 250.791 435.35 248.87C432.216 247.045 429.68 244.349 428.05 241.11C426.357 237.479 425.48 233.521 425.48 229.515C425.48 225.509 426.357 221.551 428.05 217.92C429.677 214.679 432.214 211.982 435.35 210.16C438.813 208.334 442.67 207.38 446.585 207.38C450.5 207.38 454.357 208.334 457.82 210.16C460.951 211.986 463.483 214.682 465.11 217.92C466.803 221.551 467.68 225.509 467.68 229.515C467.68 233.521 466.803 237.479 465.11 241.11C463.48 244.346 460.948 247.042 457.82 248.87C454.392 250.791 450.509 251.751 446.58 251.65V251.65ZM446.64 242.44C448.437 242.496 450.193 241.895 451.58 240.75C452.975 239.506 454.011 237.911 454.58 236.13C455.94 231.787 455.94 227.133 454.58 222.79C454.011 221.004 452.976 219.402 451.58 218.15C450.197 216.998 448.439 216.393 446.64 216.45C444.823 216.395 443.047 216.999 441.64 218.15C440.234 219.393 439.196 220.998 438.64 222.79C437.28 227.133 437.28 231.787 438.64 236.13C439.196 237.916 440.235 239.515 441.64 240.75C443.035 241.88 444.785 242.479 446.58 242.44H446.64Z" fill="#2EAE4E"/>
<path d="M479.82 202.41C478.13 202.44 476.496 201.804 475.27 200.64C474.672 200.107 474.194 199.454 473.866 198.723C473.539 197.993 473.37 197.201 473.37 196.4C473.37 195.599 473.539 194.808 473.866 194.077C474.194 193.346 474.672 192.693 475.27 192.16C476.507 191.015 478.13 190.379 479.815 190.379C481.5 190.379 483.123 191.015 484.36 192.16C484.952 192.696 485.426 193.351 485.749 194.081C486.073 194.811 486.241 195.601 486.241 196.4C486.241 197.199 486.073 197.989 485.749 198.719C485.426 199.45 484.952 200.104 484.36 200.64C483.139 201.806 481.508 202.442 479.82 202.41ZM473.82 250.81V207.94H485.71V250.81H473.82Z" fill="#2EAE4E"/>
<path d="M512.99 251.65C509.035 251.759 505.124 250.788 501.68 248.84C498.551 247.004 496.027 244.292 494.42 241.04C492.743 237.426 491.875 233.489 491.875 229.505C491.875 225.521 492.743 221.584 494.42 217.97C496.041 214.729 498.566 212.027 501.69 210.19C505.104 208.247 508.984 207.276 512.91 207.38C516.293 207.293 519.651 207.977 522.73 209.38C525.432 210.645 527.738 212.622 529.4 215.1C531.077 217.681 532.015 220.673 532.11 223.75H520.89C520.659 221.793 519.779 219.969 518.39 218.57C517.687 217.9 516.856 217.378 515.947 217.035C515.039 216.691 514.071 216.533 513.1 216.57C511.377 216.531 509.689 217.054 508.29 218.06C506.832 219.173 505.722 220.678 505.09 222.4C504.278 224.604 503.891 226.942 503.95 229.29C503.889 231.673 504.272 234.047 505.08 236.29C505.699 238.027 506.806 239.548 508.27 240.67C509.501 241.524 510.936 242.036 512.429 242.154C513.923 242.272 515.421 241.991 516.77 241.34C517.868 240.773 518.801 239.933 519.48 238.9C520.236 237.733 520.718 236.41 520.89 235.03H532.11C531.997 238.095 531.076 241.076 529.44 243.67C527.829 246.179 525.555 248.193 522.87 249.49C519.791 250.973 516.407 251.713 512.99 251.65V251.65Z" fill="#2EAE4E"/>
<path d="M557.75 251.65C553.789 251.759 549.869 250.828 546.38 248.95C543.233 247.182 540.682 244.52 539.05 241.3C537.363 237.641 536.49 233.659 536.49 229.63C536.49 225.601 537.363 221.619 539.05 217.96C540.675 214.726 543.191 212.023 546.3 210.17C549.641 208.248 553.447 207.283 557.3 207.38C559.996 207.358 562.674 207.815 565.21 208.73C567.614 209.611 569.803 210.995 571.63 212.79C573.535 214.718 574.996 217.038 575.91 219.59C576.995 222.658 577.517 225.897 577.45 229.15V232.42H541.25V225.05H566.25C566.283 223.461 565.896 221.892 565.13 220.5C564.41 219.199 563.344 218.123 562.05 217.39C560.654 216.615 559.077 216.224 557.48 216.26C555.803 216.225 554.149 216.654 552.7 217.5C551.34 218.297 550.218 219.444 549.45 220.82C548.655 222.229 548.241 223.822 548.25 225.44V232.44C548.199 234.341 548.604 236.227 549.43 237.94C550.171 239.44 551.345 240.684 552.8 241.51C554.377 242.382 556.159 242.817 557.96 242.77C559.187 242.794 560.409 242.618 561.58 242.25C562.63 241.905 563.593 241.335 564.4 240.58C565.191 239.812 565.8 238.875 566.18 237.84L577.18 238.57C576.658 241.131 575.48 243.512 573.76 245.48C571.939 247.506 569.663 249.072 567.12 250.05C564.128 251.178 560.947 251.721 557.75 251.65V251.65Z" fill="#2EAE4E"/>
<path d="M604.19 192.7C607.087 192.694 609.963 193.191 612.69 194.17C615.455 195.17 617.955 196.787 620 198.9C622.323 201.362 624.068 204.31 625.11 207.53C626.465 211.803 627.11 216.269 627.02 220.75C627.065 225.139 626.506 229.513 625.36 233.75C624.421 237.248 622.834 240.538 620.68 243.45C618.756 246.025 616.247 248.106 613.36 249.52C610.365 250.938 607.084 251.649 603.77 251.6C600.272 251.671 596.807 250.91 593.66 249.38C590.851 247.992 588.437 245.919 586.642 243.351C584.847 240.784 583.729 237.805 583.39 234.69H595.31C595.675 236.602 596.715 238.32 598.24 239.53C599.838 240.709 601.786 241.315 603.77 241.25C605.496 241.305 607.203 240.878 608.701 240.018C610.198 239.158 611.427 237.898 612.25 236.38C614.19 233.133 615.167 228.68 615.18 223.02H614.79C613.946 224.68 612.768 226.147 611.33 227.33C609.844 228.55 608.15 229.491 606.33 230.11C604.401 230.781 602.372 231.119 600.33 231.11C597.168 231.159 594.054 230.336 591.33 228.73C588.687 227.16 586.523 224.899 585.07 222.19C583.506 219.262 582.727 215.979 582.81 212.66C582.723 209.041 583.64 205.469 585.46 202.34C587.249 199.331 589.843 196.883 592.95 195.27C596.422 193.484 600.287 192.6 604.19 192.7V192.7ZM604.27 202.19C602.511 202.162 600.779 202.626 599.27 203.53C597.817 204.414 596.624 205.666 595.81 207.16C595.005 208.746 594.585 210.501 594.585 212.28C594.585 214.059 595.005 215.813 595.81 217.4C596.612 218.878 597.793 220.117 599.23 220.99C600.741 221.889 602.473 222.346 604.23 222.31C605.537 222.331 606.833 222.08 608.038 221.574C609.243 221.068 610.33 220.317 611.23 219.37C612.123 218.444 612.83 217.354 613.31 216.16C613.903 214.717 614.166 213.161 614.079 211.603C613.993 210.046 613.559 208.528 612.81 207.16C611.994 205.665 610.801 204.41 609.35 203.52C607.819 202.6 606.056 202.138 604.27 202.19V202.19Z" fill="#2EAE4E"/>
<path d="M633.93 207.94H645.82V252.79C645.931 255.621 645.237 258.426 643.82 260.88C642.494 262.982 640.511 264.588 638.18 265.45C635.353 266.468 632.351 266.91 629.35 266.75H628.35C628.01 266.75 627.6 266.75 627.14 266.69V257.4H627.96H628.7C630.62 257.4 631.96 257 632.7 256.19C633.543 255.169 633.959 253.861 633.86 252.54L633.93 207.94ZM639.87 202.41C638.183 202.44 636.552 201.804 635.33 200.64C634.732 200.107 634.254 199.454 633.926 198.723C633.599 197.993 633.43 197.201 633.43 196.4C633.43 195.599 633.599 194.808 633.926 194.077C634.254 193.346 634.732 192.693 635.33 192.16C636.565 191.016 638.186 190.38 639.87 190.38C641.554 190.38 643.175 191.016 644.41 192.16C645.002 192.696 645.475 193.351 645.799 194.081C646.123 194.811 646.291 195.601 646.291 196.4C646.291 197.199 646.123 197.989 645.799 198.719C645.475 199.45 645.002 200.104 644.41 200.64C643.189 201.806 641.558 202.442 639.87 202.41V202.41Z" fill="#2EAE4E"/>
<path d="M665.96 251.62C663.449 251.664 660.957 251.174 658.65 250.18C656.58 249.281 654.818 247.797 653.58 245.91C652.284 243.782 651.641 241.32 651.73 238.83C651.658 236.752 652.109 234.689 653.04 232.83C653.88 231.248 655.108 229.906 656.61 228.93C658.194 227.909 659.933 227.153 661.76 226.69C663.753 226.18 665.782 225.826 667.83 225.63C670.32 225.37 672.33 225.13 673.83 224.89C674.994 224.788 676.124 224.448 677.15 223.89C677.481 223.66 677.747 223.349 677.922 222.986C678.097 222.624 678.176 222.222 678.15 221.82V221.65C678.195 220.886 678.069 220.122 677.782 219.413C677.495 218.704 677.053 218.068 676.49 217.55C675.155 216.505 673.482 215.989 671.79 216.1C669.979 216.005 668.186 216.5 666.68 217.51C665.473 218.374 664.59 219.617 664.17 221.04L653.17 220.15C653.676 217.65 654.812 215.319 656.47 213.38C658.19 211.408 660.372 209.893 662.82 208.97C665.695 207.89 668.749 207.364 671.82 207.42C674.13 207.412 676.431 207.694 678.67 208.26C680.751 208.773 682.725 209.649 684.5 210.85C686.175 212.012 687.546 213.559 688.5 215.36C689.536 217.392 690.045 219.651 689.98 221.93V250.85H678.71V244.9H678.37C677.681 246.24 676.745 247.438 675.61 248.43C674.392 249.487 672.979 250.295 671.45 250.81C669.676 251.377 667.822 251.65 665.96 251.62V251.62ZM669.37 243.41C670.971 243.452 672.559 243.109 674 242.41C675.283 241.76 676.371 240.779 677.15 239.57C677.914 238.377 678.314 236.987 678.3 235.57V231.02C677.826 231.306 677.314 231.525 676.78 231.67C676.066 231.883 675.342 232.06 674.61 232.2C673.81 232.36 673.01 232.5 672.21 232.62L670.04 232.94C668.782 233.114 667.552 233.45 666.38 233.94C665.43 234.323 664.593 234.942 663.95 235.74C663.356 236.55 663.053 237.536 663.09 238.54C663.05 239.256 663.191 239.97 663.5 240.617C663.81 241.264 664.278 241.822 664.86 242.24C666.202 243.098 667.781 243.507 669.37 243.41V243.41Z" fill="#2EAE4E"/>
<path d="M99.86 80V99.86H250.81V250.81H270.67V80H99.86Z" fill="#2EAE4E"/>
<path d="M99.86 99.86H80V290.49L99.83 270.67H250.81V250.81H99.86V99.86Z" fill="#2EAE4E"/>
<path d="M160.71 187.81L134.95 162.05L121.2 175.8L160.7 215.3H160.71L230.94 145.07L217.19 131.32L160.71 187.81Z" fill="#2EAE4E"/>
</g>
</g>
<defs>
<clipPath id="clip0_3782_604">
<rect width="630.925" height="210.49" fill="white" transform="translate(80 80)"/>
</clipPath>
<clipPath id="clip1_3782_604">
<rect width="610.1" height="210.49" fill="white" transform="translate(80 80)"/>
</clipPath>
</defs>
</svg>
