<svg width="33" height="33" viewBox="0 0 33 33" fill="none" xmlns="http://www.w3.org/2000/svg">
<path d="M26.6063 28.0836L18.3219 19.7992C17.6344 20.3951 16.8323 20.8591 15.9156 21.1914C14.999 21.5237 14.025 21.6898 12.9937 21.6898C10.5187 21.6898 8.42188 20.8305 6.70312 19.1117C4.98438 17.393 4.125 15.319 4.125 12.8898C4.125 10.4607 4.98438 8.38672 6.70312 6.66797C8.42188 4.94922 10.5073 4.08984 12.9594 4.08984C15.3885 4.08984 17.4568 4.94922 19.1641 6.66797C20.8714 8.38672 21.725 10.4607 21.725 12.8898C21.725 13.8753 21.5646 14.8263 21.2437 15.743C20.9229 16.6596 20.4417 17.519 19.8 18.3211L28.1531 26.6055C28.3594 26.7888 28.4625 27.0237 28.4625 27.3102C28.4625 27.5966 28.3479 27.8544 28.1188 28.0836C27.9125 28.2898 27.6604 28.393 27.3625 28.393C27.0646 28.393 26.8125 28.2898 26.6063 28.0836ZM12.9594 19.6273C14.8156 19.6273 16.3969 18.9685 17.7031 17.6508C19.0094 16.3331 19.6625 14.7461 19.6625 12.8898C19.6625 11.0336 19.0094 9.44661 17.7031 8.12891C16.3969 6.8112 14.8156 6.15234 12.9594 6.15234C11.0802 6.15234 9.48177 6.8112 8.16406 8.12891C6.84635 9.44661 6.1875 11.0336 6.1875 12.8898C6.1875 14.7461 6.84635 16.3331 8.16406 17.6508C9.48177 18.9685 11.0802 19.6273 12.9594 19.6273Z" fill="#94ABAB"/>
</svg>
