<svg width="46" height="46" viewBox="0 0 46 46" fill="none" xmlns="http://www.w3.org/2000/svg">
<mask id="mask0_16_9188" style="mask-type:alpha" maskUnits="userSpaceOnUse" x="0" y="0" width="46" height="46">
<rect width="46" height="46" fill="#D9D9D9"/>
</mask>
<g mask="url(#mask0_16_9188)">
<path d="M24.869 4.88867C29.2135 5.30395 32.9113 7.02895 35.9627 10.0637C39.0127 13.0984 40.7454 16.8039 41.1607 21.1803H28.1753C27.8878 20.3817 27.4565 19.6949 26.8815 19.1199C26.3065 18.5449 25.6357 18.1137 24.869 17.8262V4.88867ZM27.744 8.48242V16.1012C28.1593 16.4206 28.5509 16.756 28.9189 17.1074C29.2856 17.4588 29.6128 17.8581 29.9003 18.3053H37.5669C36.8322 15.9414 35.5947 13.8887 33.8543 12.1471C32.1127 10.4068 30.076 9.1852 27.744 8.48242ZM21.2273 4.88867V17.8262C20.1412 18.2095 19.2628 18.8803 18.5919 19.8387C17.9211 20.797 17.5857 21.8512 17.5857 23.0012C17.5857 24.1512 17.9211 25.1894 18.5919 26.1158C19.2628 27.0421 20.1412 27.697 21.2273 28.0803V41.1137C16.5635 40.6345 12.6662 38.6699 9.53568 35.2199C6.40512 31.7699 4.83984 27.697 4.83984 23.0012C4.83984 18.3053 6.40512 14.2241 9.53568 10.7575C12.6662 7.29217 16.5635 5.33589 21.2273 4.88867ZM18.3523 8.48242C15.1898 9.44076 12.626 11.2616 10.6608 13.9449C8.69682 16.6283 7.71484 19.647 7.71484 23.0012C7.71484 26.3553 8.69682 29.3741 10.6608 32.0574C12.626 34.7408 15.1898 36.5776 18.3523 37.5678V29.8053C17.2343 29.0067 16.3481 28.0164 15.6939 26.8345C15.0384 25.6526 14.7107 24.3748 14.7107 23.0012C14.7107 21.6276 15.0384 20.3415 15.6939 19.1429C16.3481 17.9456 17.2343 16.9477 18.3523 16.1491V8.48242ZM28.1753 24.822H41.1607C40.7454 29.1664 39.0127 32.8643 35.9627 35.9157C32.9113 38.9657 29.2135 40.6984 24.869 41.1137V28.0803C25.6357 27.7928 26.3065 27.3693 26.8815 26.8096C27.4565 26.2512 27.8878 25.5887 28.1753 24.822ZM29.9003 27.697C29.6128 28.1123 29.2856 28.4956 28.9189 28.847C28.5509 29.1984 28.1593 29.5178 27.744 29.8053V37.5199C30.1079 36.8171 32.1523 35.5956 33.8773 33.8553C35.6023 32.1136 36.8322 30.0609 37.5669 27.697H29.9003Z" fill="#94ABAB"/>
</g>
</svg>
