<svg
  width="32"
  height="33"
  viewBox="0 0 32 33"
  fill="none"
  xmlns="http://www.w3.org/2000/svg"
>
<path
    d="M16 17.4132L12.0166 21.3965C11.8873 21.5262 11.7351 21.591 11.5601 21.591C11.3854 21.591 11.2332 21.5262 11.1035 21.3965C10.9739 21.2669 10.9091 21.1147 10.9091 20.94C10.9091 20.765 10.9739 20.6128 11.1035 20.4835L15.0869 16.5001L11.1035 12.5167C10.9739 12.3874 10.9091 12.2352 10.9091 12.0602C10.9091 11.8855 10.9739 11.7333 11.1035 11.6036C11.2332 11.474 11.3854 11.4092 11.5601 11.4092C11.7351 11.4092 11.8873 11.474 12.0166 11.6036L16 15.587L19.9834 11.6036C20.1127 11.474 20.2649 11.4092 20.4399 11.4092C20.6146 11.4092 20.7668 11.474 20.8964 11.6036C21.0261 11.7333 21.0909 11.8855 21.0909 12.0602C21.0909 12.2352 21.0261 12.3874 20.8964 12.5167L16.9131 16.5001L20.8964 20.4835C21.0261 20.6128 21.0909 20.765 21.0909 20.94C21.0909 21.1147 21.0261 21.2669 20.8964 21.3965C20.7668 21.5262 20.6146 21.591 20.4399 21.591C20.2649 21.591 20.1127 21.5262 19.9834 21.3965L16 17.4132Z"
    fill="#282828"
  />
</svg>
