<svg
  width="24"
  height="24"
  viewBox="0 0 24 24"
  fill="none"
  xmlns="http://www.w3.org/2000/svg"
>
<path
    d="M12 18.1004C11.8667 18.1004 11.7583 18.0546 11.675 17.9629C11.5917 17.8712 11.55 17.7671 11.55 17.6504C11.55 17.5171 11.5958 17.4046 11.6875 17.3129C11.7792 17.2212 11.8833 17.1754 12 17.1754C12.1333 17.1754 12.2417 17.2212 12.325 17.3129C12.4083 17.4046 12.45 17.5171 12.45 17.6504C12.45 17.7837 12.4042 17.8921 12.3125 17.9754C12.2208 18.0587 12.1167 18.1004 12 18.1004ZM12 12.4504C11.8667 12.4504 11.7583 12.4046 11.675 12.3129C11.5917 12.2212 11.55 12.1171 11.55 12.0004C11.55 11.8671 11.5958 11.7587 11.6875 11.6754C11.7792 11.5921 11.8833 11.5504 12 11.5504C12.1333 11.5504 12.2417 11.5962 12.325 11.6879C12.4083 11.7796 12.45 11.8837 12.45 12.0004C12.45 12.1337 12.4042 12.2421 12.3125 12.3254C12.2208 12.4087 12.1167 12.4504 12 12.4504ZM12 6.82539C11.8667 6.82539 11.7583 6.77956 11.675 6.68789C11.5917 6.59622 11.55 6.48372 11.55 6.35039C11.55 6.21706 11.5958 6.10872 11.6875 6.02539C11.7792 5.94206 11.8833 5.90039 12 5.90039C12.1333 5.90039 12.2417 5.94622 12.325 6.03789C12.4083 6.12956 12.45 6.23372 12.45 6.35039C12.45 6.48372 12.4042 6.59622 12.3125 6.68789C12.2208 6.77956 12.1167 6.82539 12 6.82539Z"
    fill="black"
  />
</svg>
