<svg
  width="32"
  height="32"
  viewBox="0 0 32 32"
  fill="none"
  xmlns="http://www.w3.org/2000/svg"
>
<path
    d="M16 25.3332C15.7111 25.3332 15.4722 25.2387 15.2833 25.0498C15.0944 24.8609 15 24.6221 15 24.3332V16.9998H7.66663C7.37774 16.9998 7.13885 16.9054 6.94996 16.7165C6.76107 16.5276 6.66663 16.2887 6.66663 15.9998C6.66663 15.7109 6.76107 15.4721 6.94996 15.2832C7.13885 15.0943 7.37774 14.9998 7.66663 14.9998H15V7.6665C15 7.37762 15.0944 7.13873 15.2833 6.94984C15.4722 6.76095 15.7111 6.6665 16 6.6665C16.2888 6.6665 16.5277 6.76095 16.7166 6.94984C16.9055 7.13873 17 7.37762 17 7.6665V14.9998H24.3333C24.6222 14.9998 24.8611 15.0943 25.05 15.2832C25.2388 15.4721 25.3333 15.7109 25.3333 15.9998C25.3333 16.2887 25.2388 16.5276 25.05 16.7165C24.8611 16.9054 24.6222 16.9998 24.3333 16.9998H17V24.3332C17 24.6221 16.9055 24.8609 16.7166 25.0498C16.5277 25.2387 16.2888 25.3332 16 25.3332Z"
    fill="white"
  />
</svg>
