<svg
  width="25"
  height="25"
  viewBox="0 0 25 25"
  fill="none"
  xmlns="http://www.w3.org/2000/svg"
>
<path
    d="M7.1095 22.4009H4.1095C3.57906 22.4009 3.07036 22.1902 2.69528 21.8151C2.32021 21.44 2.1095 20.9313 2.1095 20.4009V13.4009C2.1095 12.8704 2.32021 12.3617 2.69528 11.9867C3.07036 11.6116 3.57906 11.4009 4.1095 11.4009H7.1095M14.1095 9.40088V5.40088C14.1095 4.60523 13.7934 3.84217 13.2308 3.27956C12.6682 2.71695 11.9051 2.40088 11.1095 2.40088L7.1095 11.4009V22.4009H18.3895C18.8718 22.4063 19.3399 22.2373 19.7074 21.9249C20.0749 21.6125 20.3172 21.1778 20.3895 20.7009L21.7695 11.7009C21.813 11.4142 21.7937 11.1216 21.7128 10.8431C21.632 10.5647 21.4916 10.3072 21.3014 10.0884C21.1111 9.86961 20.8756 9.69481 20.6111 9.5761C20.3466 9.45738 20.0594 9.3976 19.7695 9.40088H14.1095Z"
    stroke="#626A6E"
    stroke-width="2"
    stroke-linecap="round"
    stroke-linejoin="round"
  />
</svg>
