<svg
  width="20"
  height="21"
  viewBox="0 0 20 21"
  fill="none"
  xmlns="http://www.w3.org/2000/svg"
>
<mask
    id="mask0_1736_8114"
    style="mask-type:alpha"
    maskUnits="userSpaceOnUse"
    x="0"
    y="0"
    width="20"
    height="21"
  >
<rect y="0.5" width="20" height="20" fill="#D9D9D9" />
</mask>
<g mask="url(#mask0_1736_8114)">
<path
      d="M2.75 13.4167C2.36111 13.4167 2.01389 13.2639 1.70833 12.9584C1.40278 12.6528 1.25 12.3056 1.25 11.9167V10.5625C1.25 10.4792 1.26056 10.3853 1.28167 10.2809C1.30222 10.177 1.32639 10.0834 1.35417 10L3.75 4.37502C3.86111 4.09724 4.05917 3.86808 4.34417 3.68752C4.62861 3.50696 4.92361 3.41669 5.22917 3.41669H14V13.4167L9.14583 18.2292C8.97917 18.3959 8.78833 18.4931 8.57333 18.5209C8.35778 18.5486 8.14583 18.5139 7.9375 18.4167C7.74305 18.3056 7.59722 18.1528 7.5 17.9584C7.40278 17.7639 7.38194 17.5556 7.4375 17.3334L8.33333 13.4167H2.75ZM12.75 12.875V4.66669H5.22917C5.17361 4.66669 5.11444 4.68391 5.05167 4.71835C4.98944 4.75335 4.9375 4.80558 4.89583 4.87502L2.5 10.5V11.9167C2.5 11.9861 2.52444 12.045 2.57333 12.0934C2.62167 12.1422 2.68056 12.1667 2.75 12.1667H9.91667L8.875 16.7292L12.75 12.875ZM16.4167 3.41669C16.8333 3.41669 17.1875 3.56252 17.4792 3.85419C17.7708 4.14585 17.9167 4.50002 17.9167 4.91669V11.9167C17.9167 12.3334 17.7708 12.6875 17.4792 12.9792C17.1875 13.2709 16.8333 13.4167 16.4167 13.4167H14V12.1667H16.4167C16.4861 12.1667 16.5453 12.1422 16.5942 12.0934C16.6425 12.045 16.6667 11.9861 16.6667 11.9167V4.91669C16.6667 4.84724 16.6425 4.78835 16.5942 4.74002C16.5453 4.69113 16.4861 4.66669 16.4167 4.66669H14V3.41669H16.4167Z"
      fill="#B8CACA"
    />
</g>
</svg>
