<svg
  width="25"
  height="25"
  viewBox="0 0 25 25"
  fill="none"
  xmlns="http://www.w3.org/2000/svg"
>
<path
    d="M17.9467 2.77526H20.6167C21.1826 2.76525 21.7326 2.9634 22.1621 3.33208C22.5916 3.70077 22.8708 4.21432 22.9467 4.77526V11.7753C22.8708 12.3362 22.5916 12.8498 22.1621 13.2184C21.7326 13.5871 21.1826 13.7853 20.6167 13.7753H17.9467M10.9467 15.7753V19.7753C10.9467 20.5709 11.2628 21.334 11.8254 21.8966C12.388 22.4592 13.151 22.7753 13.9467 22.7753L17.9467 13.7753V2.77526H6.66669C6.18436 2.76981 5.71631 2.93886 5.34878 3.25126C4.98125 3.56366 4.73901 3.99836 4.66669 4.47526L3.28669 13.4753C3.24318 13.7619 3.26251 14.0546 3.34335 14.333C3.42418 14.6114 3.56458 14.869 3.75483 15.0877C3.94507 15.3065 4.18061 15.4813 4.44511 15.6C4.70962 15.7188 4.99678 15.7785 5.28669 15.7753H10.9467Z"
    stroke="#626A6E"
    stroke-width="2"
    stroke-linecap="round"
    stroke-linejoin="round"
  />
</svg>
