<svg
  width="20"
  height="21"
  viewBox="0 0 20 21"
  fill="none"
  xmlns="http://www.w3.org/2000/svg"
>
<mask
    id="mask0_1425_27115"
    style="mask-type:alpha"
    maskUnits="userSpaceOnUse"
    x="0"
    y="0"
    width="20"
    height="21"
  >
<rect y="0.5" width="20" height="20" fill="#D9D9D9" />
</mask>
<g mask="url(#mask0_1425_27115)">
<path
      d="M5.58329 16.5839L3.29163 16.0839C3.08329 16.0422 2.91663 15.9345 2.79163 15.7606C2.66663 15.5872 2.61801 15.3964 2.64579 15.1881L2.87496 12.8339L1.31246 11.0422C1.17357 10.8895 1.10413 10.7089 1.10413 10.5006C1.10413 10.2922 1.17357 10.1117 1.31246 9.95891L2.87496 8.16724L2.64579 5.81308C2.61801 5.60474 2.66663 5.41391 2.79163 5.24058C2.91663 5.06669 3.08329 4.95891 3.29163 4.91725L5.58329 4.41725L6.79163 2.37558C6.90274 2.19502 7.05552 2.07697 7.24996 2.02141C7.4444 1.96586 7.63885 1.9728 7.83329 2.04225L9.99996 2.95891L12.1666 2.04225C12.3611 1.9728 12.5555 1.96586 12.75 2.02141C12.9444 2.07697 13.0972 2.19502 13.2083 2.37558L14.4166 4.41725L16.7083 4.91725C16.9166 4.95891 17.0833 5.06669 17.2083 5.24058C17.3333 5.41391 17.3819 5.60474 17.3541 5.81308L17.125 8.16724L18.6875 9.95891C18.8263 10.1117 18.8958 10.2922 18.8958 10.5006C18.8958 10.7089 18.8263 10.8895 18.6875 11.0422L17.125 12.8339L17.3541 15.1881C17.3819 15.3964 17.3333 15.5872 17.2083 15.7606C17.0833 15.9345 16.9166 16.0422 16.7083 16.0839L14.4166 16.5839L13.2083 18.6256C13.0972 18.8061 12.9444 18.9242 12.75 18.9797C12.5555 19.0353 12.3611 19.0284 12.1666 18.9589L9.99996 18.0422L7.83329 18.9589C7.63885 19.0284 7.4444 19.0353 7.24996 18.9797C7.05552 18.9242 6.90274 18.8061 6.79163 18.6256L5.58329 16.5839ZM8.54163 12.8756C8.6944 13.0284 8.88885 13.1047 9.12496 13.1047C9.36107 13.1047 9.55552 13.0284 9.70829 12.8756L13.25 9.33391C13.4166 9.16724 13.5 8.96919 13.5 8.73974C13.5 8.51086 13.4166 8.31308 13.25 8.14641C13.0833 7.97974 12.8855 7.89641 12.6566 7.89641C12.4272 7.89641 12.2291 7.97974 12.0625 8.14641L9.12496 11.0839L7.91663 9.89641C7.74996 9.74363 7.55218 9.67058 7.32329 9.67724C7.09385 9.68447 6.90274 9.76447 6.74996 9.91724C6.59718 10.07 6.52079 10.2645 6.52079 10.5006C6.52079 10.7367 6.59718 10.9311 6.74996 11.0839L8.54163 12.8756Z"
      fill="#2EAE4E"
    />
</g>
</svg>
