<svg width="12" height="12" viewBox="0 0 12 12" fill="none" xmlns="http://www.w3.org/2000/svg">
<rect width="12" height="12" rx="6" fill="#2EAE4E"/>
<g clip-path="url(#clip0_1425_29024)">
<path fill-rule="evenodd" clip-rule="evenodd" d="M3.52499 6.00039C3.52499 4.7191 4.65206 3.71289 5.99999 3.71289C7.34793 3.71289 8.47499 4.7191 8.47499 6.00039C8.47499 7.28169 7.34793 8.28789 5.99999 8.28789C5.79445 8.28789 5.59413 8.26482 5.40231 8.22082C5.13969 8.38228 4.83046 8.47539 4.49999 8.47539V8.25039L4.50033 8.47539C4.50022 8.47539 4.5001 8.47539 4.49999 8.47539C4.39747 8.47552 4.29513 8.46647 4.19422 8.44835C4.11502 8.43412 4.04945 8.37869 4.02224 8.30296C3.99504 8.22724 4.01034 8.14275 4.06238 8.08138C4.15004 7.978 4.21309 7.85607 4.24679 7.72479L4.46474 7.78064L4.2468 7.72472C4.25663 7.68623 4.24233 7.61568 4.1566 7.52691C3.76596 7.12429 3.52499 6.58964 3.52499 6.00039ZM5.99999 4.16289C4.86293 4.16289 3.97499 5.00369 3.97499 6.00039C3.97499 6.46305 4.16346 6.88783 4.47971 7.21369L4.48003 7.21403C4.61012 7.34863 4.74984 7.57448 4.6827 7.83649L4.68268 7.83656C4.66662 7.89917 4.64611 7.96036 4.62139 8.0197C4.84742 7.9984 5.0559 7.91818 5.2319 7.79454C5.28664 7.75608 5.35566 7.74397 5.42022 7.76151C5.60339 7.81126 5.79805 7.83789 5.99999 7.83789C7.13706 7.83789 8.02499 6.9971 8.02499 6.00039C8.02499 5.00369 7.13706 4.16289 5.99999 4.16289Z" fill="white"/>
</g>
<defs>
<clipPath id="clip0_1425_29024">
<rect width="6" height="6" fill="white" transform="translate(3 3)"/>
</clipPath>
</defs>
</svg>
