<svg width="12" height="12" viewBox="0 0 12 12" fill="none" xmlns="http://www.w3.org/2000/svg">
<rect width="12" height="12" rx="6" fill="#E85C4A"/>
<mask id="mask0_1425_29256" style="mask-type:alpha" maskUnits="userSpaceOnUse" x="3" y="3" width="6" height="6">
<rect x="3" y="3" width="6" height="6" fill="#D9D9D9"/>
</mask>
<g mask="url(#mask0_1425_29256)">
<path d="M3.825 6.875C3.70833 6.875 3.60417 6.82917 3.5125 6.7375C3.42083 6.64583 3.375 6.54167 3.375 6.425V6.01875C3.375 5.99375 3.37817 5.96558 3.3845 5.93425C3.39067 5.90308 3.39792 5.875 3.40625 5.85L4.125 4.1625C4.15833 4.07917 4.21775 4.01042 4.30325 3.95625C4.38858 3.90208 4.47708 3.875 4.56875 3.875H6.59375C6.71875 3.875 6.825 3.91875 6.9125 4.00625C7 4.09375 7.04375 4.2 7.04375 4.325V6.6875C7.04375 6.75 7.03125 6.80833 7.00625 6.8625C6.98125 6.91667 6.94792 6.96458 6.90625 7.00625L5.5875 8.31875C5.5375 8.36875 5.47917 8.39892 5.4125 8.40925C5.34583 8.41975 5.28333 8.41042 5.225 8.38125C5.16667 8.34792 5.12392 8.30208 5.09675 8.24375C5.06975 8.18542 5.06458 8.12292 5.08125 8.05625L5.35 6.875H3.825ZM7.925 3.875C8.05 3.875 8.15625 3.91875 8.24375 4.00625C8.33125 4.09375 8.375 4.2 8.375 4.325V6.425C8.375 6.55 8.33125 6.65625 8.24375 6.74375C8.15625 6.83125 8.05 6.875 7.925 6.875H7.86875C7.74375 6.875 7.6375 6.83125 7.55 6.74375C7.4625 6.65625 7.41875 6.55 7.41875 6.425V4.325C7.41875 4.2 7.4625 4.09375 7.55 4.00625C7.6375 3.91875 7.74375 3.875 7.86875 3.875H7.925Z" fill="white"/>
</g>
</svg>
