<svg width="12" height="12" viewBox="0 0 12 12" fill="none" xmlns="http://www.w3.org/2000/svg">
<rect width="12" height="12" rx="6" fill="#2EAE4E"/>
<mask id="mask0_1425_28890" style="mask-type:alpha" maskUnits="userSpaceOnUse" x="3" y="3" width="6" height="6">
<rect x="3" y="3" width="6" height="6" fill="#D9D9D9"/>
</mask>
<g mask="url(#mask0_1425_28890)">
<path d="M5.40625 8.12449C5.28125 8.12449 5.175 8.08074 5.0875 7.99324C5 7.90574 4.95625 7.79949 4.95625 7.67449V5.31199C4.95625 5.24949 4.96875 5.19116 4.99375 5.13699C5.01875 5.08283 5.05208 5.03491 5.09375 4.99324L6.4125 3.68074C6.4625 3.63074 6.52083 3.60049 6.5875 3.58999C6.65417 3.57966 6.71667 3.58908 6.775 3.61824C6.83333 3.65158 6.87608 3.69741 6.90325 3.75574C6.93025 3.81408 6.93542 3.87658 6.91875 3.94324L6.65 5.12449H8.175C8.29167 5.12449 8.39583 5.17033 8.4875 5.26199C8.57917 5.35366 8.625 5.45783 8.625 5.57449V5.98074C8.625 6.00574 8.62183 6.03383 8.6155 6.06499C8.60933 6.09633 8.60208 6.12449 8.59375 6.14949L7.875 7.83699C7.84167 7.92033 7.78233 7.98908 7.697 8.04324C7.6115 8.09741 7.52292 8.12449 7.43125 8.12449H5.40625ZM4.075 8.12449C3.95 8.12449 3.84375 8.08074 3.75625 7.99324C3.66875 7.90574 3.625 7.79949 3.625 7.67449V5.57449C3.625 5.44949 3.66875 5.34324 3.75625 5.25574C3.84375 5.16824 3.95 5.12449 4.075 5.12449H4.13125C4.25625 5.12449 4.3625 5.16824 4.45 5.25574C4.5375 5.34324 4.58125 5.44949 4.58125 5.57449V7.67449C4.58125 7.79949 4.5375 7.90574 4.45 7.99324C4.3625 8.08074 4.25625 8.12449 4.13125 8.12449H4.075Z" fill="white"/>
</g>
</svg>
