<svg
  width="12"
  height="12"
  viewBox="0 0 12 12"
  fill="none"
  xmlns="http://www.w3.org/2000/svg"
>
<rect width="12" height="12" rx="6" fill="#2EAE4E" />
<g clip-path="url(#clip0_1425_29396)">
<path
      d="M3.5 7.025V3.7625C3.5 3.70417 3.52708 3.64583 3.58125 3.5875C3.63542 3.52917 3.69167 3.5 3.75 3.5H6.99375C7.05625 3.5 7.11458 3.52813 7.16875 3.58438C7.22292 3.64063 7.25 3.7 7.25 3.7625V5.9875C7.25 6.04583 7.22292 6.10417 7.16875 6.1625C7.11458 6.22083 7.05625 6.25 6.99375 6.25H4.5L3.6625 7.0875C3.63333 7.11667 3.59896 7.12396 3.55937 7.10938C3.51979 7.09479 3.5 7.06667 3.5 7.025ZM3.875 3.875V5.875V3.875ZM4.75625 7.5C4.69792 7.5 4.64062 7.47083 4.58438 7.4125C4.52813 7.35417 4.5 7.29583 4.5 7.2375V6.625H7.625V4.5H8.25C8.30833 4.5 8.36458 4.52917 8.41875 4.5875C8.47292 4.64583 8.5 4.70625 8.5 4.76875V8.26875C8.5 8.31042 8.48021 8.33854 8.44063 8.35313C8.40104 8.36771 8.36667 8.36042 8.3375 8.33125L7.50625 7.5H4.75625ZM6.875 3.875H3.875V5.875H6.875V3.875Z"
      fill="white"
    />
</g>
<defs>
<clipPath id="clip0_1425_29396">
<rect width="6" height="6" fill="white" transform="translate(3 3)" />
</clipPath>
</defs>
</svg>
