<svg width="12" height="12" viewBox="0 0 12 12" fill="none" xmlns="http://www.w3.org/2000/svg">
<rect width="12" height="12" rx="6" fill="#2196F3"/>
<path d="M3.9375 7.74922C3.88333 7.74922 3.83854 7.73151 3.80313 7.69609C3.76771 7.66068 3.75 7.61589 3.75 7.56172V6.66172C3.75 6.33255 3.86667 6.05234 4.1 5.82109C4.33333 5.58984 4.6125 5.47422 4.9375 5.47422H7.5375L6.7 4.63672C6.66667 4.60339 6.65 4.56172 6.65 4.51172C6.65 4.46172 6.66875 4.41797 6.70625 4.38047C6.74375 4.34297 6.7875 4.32422 6.8375 4.32422C6.8875 4.32422 6.93125 4.34297 6.96875 4.38047L8.11875 5.53047C8.13958 5.5513 8.15417 5.57214 8.1625 5.59297C8.17083 5.6138 8.175 5.63672 8.175 5.66172C8.175 5.68672 8.17083 5.70964 8.1625 5.73047C8.15417 5.7513 8.13958 5.77214 8.11875 5.79297L6.9625 6.94922C6.92917 6.98255 6.8875 6.99922 6.8375 6.99922C6.7875 6.99922 6.74375 6.98047 6.70625 6.94297C6.66875 6.90547 6.65 6.86172 6.65 6.81172C6.65 6.76172 6.66875 6.71797 6.70625 6.68047L7.5375 5.84922H4.9375C4.7125 5.84922 4.52083 5.92839 4.3625 6.08672C4.20417 6.24505 4.125 6.43672 4.125 6.66172V7.56172C4.125 7.61589 4.10729 7.66068 4.07187 7.69609C4.03646 7.73151 3.99167 7.74922 3.9375 7.74922Z" fill="white"/>
</svg>
