<svg
  width="20"
  height="20"
  viewBox="0 0 20 20"
  fill="none"
  xmlns="http://www.w3.org/2000/svg"
>
<path
    d="M9.99996 18.3327C8.84718 18.3327 7.76385 18.1139 6.74996 17.6764C5.73607 17.2389 4.85413 16.6452 4.10413 15.8952C3.35413 15.1452 2.76038 14.2632 2.32288 13.2493C1.88538 12.2355 1.66663 11.1521 1.66663 9.99935C1.66663 8.84657 1.88538 7.76324 2.32288 6.74935C2.76038 5.73546 3.35413 4.85352 4.10413 4.10352C4.85413 3.35352 5.73607 2.75977 6.74996 2.32227C7.76385 1.88477 8.84718 1.66602 9.99996 1.66602C11.1527 1.66602 12.2361 1.88477 13.25 2.32227C14.2638 2.75977 15.1458 3.35352 15.8958 4.10352C16.6458 4.85352 17.2395 5.73546 17.677 6.74935C18.1145 7.76324 18.3333 8.84657 18.3333 9.99935C18.3333 11.1521 18.1145 12.2355 17.677 13.2493C17.2395 14.2632 16.6458 15.1452 15.8958 15.8952C15.1458 16.6452 14.2638 17.2389 13.25 17.6764C12.2361 18.1139 11.1527 18.3327 9.99996 18.3327ZM9.10413 17.0618V15.3535C8.61802 15.3535 8.20829 15.173 7.87496 14.8118C7.54163 14.4507 7.37496 14.0271 7.37496 13.541V12.6243L3.10413 8.35352C3.03468 8.63129 2.98607 8.9056 2.95829 9.17643C2.93051 9.44727 2.91663 9.72157 2.91663 9.99935C2.91663 11.8049 3.50343 13.3813 4.67704 14.7285C5.85065 16.0757 7.32635 16.8535 9.10413 17.0618ZM15.2291 14.8118C15.8402 14.1452 16.302 13.3987 16.6145 12.5723C16.927 11.7459 17.0833 10.8882 17.0833 9.99935C17.0833 8.52713 16.6805 7.19032 15.875 5.98893C15.0694 4.78754 13.993 3.90907 12.6458 3.35352V3.72852C12.6458 4.21463 12.4791 4.63824 12.1458 4.99935C11.8125 5.36046 11.4027 5.54102 10.9166 5.54102H9.10413V7.35352C9.10413 7.58963 9.01038 7.78407 8.82288 7.93685C8.63538 8.08963 8.42357 8.16602 8.18746 8.16602H6.45829V9.99935H11.8333C12.0694 9.99935 12.2638 10.0896 12.4166 10.2702C12.5694 10.4507 12.6458 10.6591 12.6458 10.8952V13.541H13.5416C13.9444 13.541 14.2986 13.6591 14.6041 13.8952C14.9097 14.1313 15.118 14.4368 15.2291 14.8118Z"
    fill="#D6DBDB"
  />
</svg>
