<svg width="20" height="20" viewBox="0 0 20 20" fill="none" xmlns="http://www.w3.org/2000/svg">
<path d="M1.41663 16.666C1.23607 16.666 1.08676 16.607 0.968709 16.4889C0.850654 16.3709 0.791626 16.2216 0.791626 16.041V14.7077C0.791626 14.2216 0.916626 13.7806 1.16663 13.3848C1.41663 12.9889 1.76385 12.6938 2.20829 12.4993C3.22218 12.0549 4.13538 11.7355 4.94788 11.541C5.76038 11.3466 6.59718 11.2493 7.45829 11.2493C8.3194 11.2493 9.15274 11.3466 9.95829 11.541C10.7638 11.7355 11.6736 12.0549 12.6875 12.4993C13.1319 12.6938 13.4826 12.9889 13.7395 13.3848C13.9965 13.7806 14.125 14.2216 14.125 14.7077V16.041C14.125 16.2216 14.0659 16.3709 13.9479 16.4889C13.8298 16.607 13.6805 16.666 13.5 16.666H1.41663ZM14.9166 16.666C15.0555 16.6382 15.1666 16.5653 15.25 16.4473C15.3333 16.3292 15.375 16.1799 15.375 15.9993V14.7077C15.375 13.8327 15.1527 13.1139 14.7083 12.5514C14.2638 11.9889 13.6805 11.5341 12.9583 11.1869C13.9166 11.298 14.8194 11.4612 15.6666 11.6764C16.5138 11.8917 17.2013 12.1382 17.7291 12.416C18.1875 12.6799 18.5486 13.0063 18.8125 13.3952C19.0763 13.7841 19.2083 14.2216 19.2083 14.7077V16.041C19.2083 16.2216 19.1493 16.3709 19.0312 16.4889C18.9132 16.607 18.7638 16.666 18.5833 16.666H14.9166ZM7.45829 9.97852C6.54163 9.97852 5.79163 9.68685 5.20829 9.10352C4.62496 8.52018 4.33329 7.77018 4.33329 6.85352C4.33329 5.93685 4.62496 5.18685 5.20829 4.60352C5.79163 4.02018 6.54163 3.72852 7.45829 3.72852C8.37496 3.72852 9.12496 4.02018 9.70829 4.60352C10.2916 5.18685 10.5833 5.93685 10.5833 6.85352C10.5833 7.77018 10.2916 8.52018 9.70829 9.10352C9.12496 9.68685 8.37496 9.97852 7.45829 9.97852ZM14.9583 6.85352C14.9583 7.77018 14.6666 8.52018 14.0833 9.10352C13.5 9.68685 12.75 9.97852 11.8333 9.97852C11.6805 9.97852 11.5104 9.9681 11.3229 9.94727C11.1354 9.92643 10.9652 9.88824 10.8125 9.83268C11.1458 9.48546 11.3993 9.05838 11.5729 8.55143C11.7465 8.04449 11.8333 7.47852 11.8333 6.85352C11.8333 6.22852 11.7465 5.67643 11.5729 5.19727C11.3993 4.7181 11.1458 4.27713 10.8125 3.87435C10.9652 3.83268 11.1354 3.79796 11.3229 3.77018C11.5104 3.7424 11.6805 3.72852 11.8333 3.72852C12.75 3.72852 13.5 4.02018 14.0833 4.60352C14.6666 5.18685 14.9583 5.93685 14.9583 6.85352ZM2.04163 15.416H12.875V14.7077C12.875 14.4855 12.809 14.2702 12.677 14.0618C12.5451 13.8535 12.3819 13.7077 12.1875 13.6243C11.1875 13.1799 10.3472 12.8813 9.66663 12.7285C8.98607 12.5757 8.24996 12.4993 7.45829 12.4993C6.66663 12.4993 5.92704 12.5757 5.23954 12.7285C4.55204 12.8813 3.70829 13.1799 2.70829 13.6243C2.51385 13.7077 2.35413 13.8535 2.22913 14.0618C2.10413 14.2702 2.04163 14.4855 2.04163 14.7077V15.416ZM7.45829 8.72852C7.99996 8.72852 8.44788 8.55143 8.80204 8.19727C9.15621 7.8431 9.33329 7.39518 9.33329 6.85352C9.33329 6.31185 9.15621 5.86393 8.80204 5.50977C8.44788 5.1556 7.99996 4.97852 7.45829 4.97852C6.91663 4.97852 6.46871 5.1556 6.11454 5.50977C5.76038 5.86393 5.58329 6.31185 5.58329 6.85352C5.58329 7.39518 5.76038 7.8431 6.11454 8.19727C6.46871 8.55143 6.91663 8.72852 7.45829 8.72852Z" fill="#D6DBDB"/>
</svg>
