<svg
  width="20"
  height="20"
  viewBox="0 0 20 20"
  fill="none"
  xmlns="http://www.w3.org/2000/svg"
>
<path
    d="M14.3959 14.3743C14.757 14.3743 15.0625 14.2424 15.3125 13.9785C15.5625 13.7146 15.6875 13.4021 15.6875 13.041C15.6875 12.6799 15.5625 12.3743 15.3125 12.1243C15.0625 11.8743 14.757 11.7493 14.3959 11.7493C14.0348 11.7493 13.7223 11.8743 13.4584 12.1243C13.1945 12.3743 13.0625 12.6799 13.0625 13.041C13.0625 13.4021 13.1945 13.7146 13.4584 13.9785C13.7223 14.2424 14.0348 14.3743 14.3959 14.3743ZM14.375 16.9785C14.8334 16.9785 15.25 16.8813 15.625 16.6868C16 16.4924 16.3195 16.2146 16.5834 15.8535C16.2223 15.6591 15.8612 15.5132 15.5 15.416C15.1389 15.3188 14.7639 15.2702 14.375 15.2702C13.9862 15.2702 13.6077 15.3188 13.2396 15.416C12.8716 15.5132 12.5139 15.6591 12.1667 15.8535C12.4306 16.2146 12.7466 16.4924 13.1146 16.6868C13.4827 16.8813 13.9028 16.9785 14.375 16.9785ZM14.4375 18.3327C13.3542 18.3327 12.4306 17.9473 11.6667 17.1764C10.9028 16.4056 10.5209 15.4924 10.5209 14.4368C10.5209 13.3535 10.9028 12.4264 11.6667 11.6556C12.4306 10.8848 13.3542 10.4993 14.4375 10.4993C15.507 10.4993 16.4271 10.8848 17.198 11.6556C17.9688 12.4264 18.3542 13.3535 18.3542 14.4368C18.3542 15.4924 17.9688 16.4056 17.198 17.1764C16.4271 17.9473 15.507 18.3327 14.4375 18.3327ZM10 18.2702C9.9306 18.2702 9.87851 18.2702 9.84379 18.2702C9.80907 18.2702 9.75699 18.2563 9.68754 18.2285C7.92365 17.7007 6.42365 16.5896 5.18754 14.8952C3.95143 13.2007 3.33337 11.2771 3.33337 9.12435V5.02018C3.33337 4.75629 3.40976 4.51671 3.56254 4.30143C3.71532 4.08615 3.90976 3.9299 4.14587 3.83268L9.56254 1.81185C9.71532 1.75629 9.86115 1.72852 10 1.72852C10.1389 1.72852 10.2848 1.75629 10.4375 1.81185L15.8542 3.83268C16.0903 3.9299 16.2848 4.08615 16.4375 4.30143C16.5903 4.51671 16.6667 4.75629 16.6667 5.02018V9.77018C16.4723 9.67296 16.2639 9.58615 16.0417 9.50977C15.8195 9.43338 15.6112 9.38129 15.4167 9.35352V5.02018L10 3.02018L4.58337 5.02018V9.12435C4.58337 10.1799 4.75351 11.1521 5.09379 12.041C5.43407 12.9299 5.8681 13.7112 6.39587 14.3848C6.92365 15.0584 7.50698 15.6174 8.14587 16.0618C8.78476 16.5063 9.40282 16.8257 10 17.0202C10.0834 17.1868 10.2084 17.3743 10.375 17.5827C10.5417 17.791 10.6806 17.9507 10.7917 18.0618C10.6389 18.1313 10.4966 18.1834 10.3646 18.2181C10.2327 18.2528 10.1112 18.2702 10 18.2702Z"
    fill="#D6DBDB"
  />
</svg>
